<svg width="52" height="52" viewBox="0 0 52 52" fill="none" xmlns="http://www.w3.org/2000/svg">
<path d="M37.723 0H14.274C6.38999 0 0 6.392 0 14.275V37.724C0 45.608 6.39099 51.998 14.274 51.998H37.723C45.607 51.998 51.998 45.607 51.998 37.724V14.275C51.998 6.392 45.607 0 37.723 0Z" fill="#1E6CB5"/>
<path d="M42.538 41.2731C42.5 40.1191 42.489 38.9641 42.475 37.8101C42.472 37.5541 42.388 37.3491 42.203 37.1751C41.937 36.9241 41.669 36.6761 41.416 36.4121C41.178 36.1631 40.906 36.0791 40.568 36.1421C40.294 36.1941 40.015 36.2161 39.733 36.2511C39.708 36.0331 39.685 35.8491 39.664 35.6651C39.644 35.4801 39.623 35.2951 39.605 35.1081C39.543 34.4601 39.337 34.2671 38.688 34.2311C38.313 34.2101 37.937 34.1731 37.549 34.1431C37.577 33.8441 37.595 33.5701 37.627 33.2981C37.698 32.6701 37.433 32.3781 36.795 32.3891C36.441 32.3941 36.086 32.4001 35.719 32.4071C35.712 32.0271 35.697 31.6781 35.703 31.3281C35.708 31.0901 35.641 30.8961 35.501 30.7241C38.474 28.8511 40.449 25.5401 40.449 21.7671V20.3221C40.449 14.4811 35.713 9.74512 29.871 9.74512H13.084C11.81 9.74512 10.589 9.97012 9.45898 10.3831L14.654 15.5791H29.302C32.321 15.5791 34.769 18.0251 34.769 21.0441C34.769 22.2821 34.358 23.4231 33.665 24.3391C33.513 24.5411 33.347 24.7301 33.168 24.9091C32.178 25.8981 30.812 26.5101 29.302 26.5101H23.738L23.612 26.6361C23.56 26.5971 23.508 26.5551 23.461 26.5101H22.89C22.683 26.7931 22.513 27.1051 22.392 27.4421C22.326 27.6251 22.273 27.8161 22.237 28.0121C22.195 28.2311 22.175 28.4581 22.175 28.6891C22.175 30.5901 23.616 32.1521 25.466 32.3451H27.476L29.129 33.9401C29.198 33.9531 29.261 33.9901 29.33 34.0581C31.995 36.6411 34.662 39.2191 37.334 41.7951C37.506 41.9621 37.708 42.1011 37.897 42.2531C39.283 42.2301 40.669 42.2061 42.056 42.1831C42.439 41.9981 42.552 41.6891 42.538 41.2731ZM25.29 13.6431C25.1 13.8331 24.836 13.9521 24.547 13.9521H18.407C17.828 13.9521 17.354 13.4791 17.354 12.8991C17.354 12.6091 17.473 12.3461 17.663 12.1561C17.855 11.9651 18.117 11.8471 18.407 11.8471H24.547C25.126 11.8471 25.6 12.3201 25.6 12.8991C25.599 13.1901 25.481 13.4531 25.29 13.6431ZM38.178 38.3571C38.079 38.4611 37.915 38.4621 37.812 38.3641L31.448 32.2281C31.658 32.1971 31.868 32.1601 32.075 32.1141L38.17 37.9921C38.274 38.0911 38.278 38.2541 38.178 38.3571Z" fill="#FBE727"/>
</svg>
