<svg width="325" height="61" viewBox="0 0 325 61" fill="none" xmlns="http://www.w3.org/2000/svg">
<path d="M58.5861 20.5224C58.5861 22.9479 58.2862 25.1149 57.6865 27.0236C57.0893 28.9323 56.2776 30.6167 55.2562 32.0719C54.2324 33.5321 53.055 34.7777 51.7192 35.8137C50.3834 36.8497 48.9867 37.7004 47.5289 38.3683C46.0688 39.0362 44.5989 39.5189 43.1119 39.8187C41.625 40.1186 40.2282 40.2697 38.9216 40.2697L61.1188 59.4441H44.6842L22.5261 40.2697H14.8817V29.6416H38.9193C40.2551 29.5319 41.4739 29.2516 42.5781 28.8031C43.6799 28.3545 44.6355 27.7476 45.4399 26.9846C46.2419 26.2216 46.8635 25.3026 47.2998 24.2252C47.7362 23.1478 47.9555 21.9143 47.9555 20.5249V13.8214C47.9555 13.2217 47.88 12.7659 47.7313 12.4514C47.5802 12.1394 47.3876 11.9078 47.1585 11.7567C46.9293 11.6056 46.6831 11.5178 46.4223 11.491C46.1639 11.4642 45.925 11.4495 45.708 11.4495H10.628V59.4441H0V6.17454C0 5.43837 0.136506 4.74362 0.409521 4.09033C0.680098 3.43705 1.05793 2.86422 1.53327 2.37425C2.0086 1.88429 2.57653 1.50158 3.22982 1.22856C3.88311 0.955547 4.59255 0.821459 5.35553 0.821459H45.708C48.0798 0.821459 50.0812 1.25048 51.7168 2.10853C53.3525 2.96901 54.681 4.04404 55.7048 5.33842C56.7262 6.63281 57.4624 8.02956 57.9109 9.5287C58.3594 11.0278 58.5837 12.4295 58.5837 13.7385L58.5861 20.5224Z" fill="#1E6CB5"/>
<path d="M122.24 59.4417H83.8936C82.4213 59.4417 80.8149 59.1833 79.0696 58.6641C77.3242 58.1473 75.7105 57.2942 74.226 56.1095C72.7415 54.9248 71.5007 53.3842 70.5061 51.4877C69.5116 49.5936 69.0143 47.2706 69.0143 44.5185V6.17208C69.0143 5.43592 69.1507 4.7412 69.4238 4.08792C69.6943 3.43463 70.0722 2.86176 70.5475 2.3718C71.0228 1.88183 71.5909 1.49912 72.2442 1.22611C72.8975 0.953092 73.6067 0.819041 74.3697 0.819041H122.242V11.4471H79.6424V44.5209C79.6424 45.9104 80.0105 46.9732 80.7466 47.7093C81.4828 48.4455 82.5578 48.8136 83.9765 48.8136H122.24V59.4417ZM117.457 35.4846H83.8911V24.7737H117.457V35.4846Z" fill="#1E6CB5"/>
<path d="M191.086 54.9028C191.086 55.6658 190.942 56.3752 190.657 57.0284C190.372 57.6842 189.989 58.2497 189.511 58.725C189.036 59.2028 188.468 59.5758 187.815 59.8488C187.161 60.1218 186.467 60.2583 185.733 60.2583C185.077 60.2583 184.417 60.1364 183.751 59.8902C183.083 59.644 182.489 59.2491 181.974 58.7055L143.133 18.1506V59.4417H132.505V5.35545C132.505 4.26583 132.812 3.27618 133.426 2.39132C134.038 1.50646 134.821 0.845848 135.776 0.409511C136.785 0.00242638 137.821 -0.0999715 138.882 0.102352C139.947 0.307113 140.859 0.804389 141.622 1.59418L180.46 42.1101V0.819032H191.089L191.086 54.9028Z" fill="#1E6CB5"/>
<path d="M232.994 11.4447V59.4393H222.366V11.4447H198.899V0.816586H256.42V11.4447H232.994Z" fill="#1E6CB5"/>
<path d="M325 35.7284C325 39.2995 324.386 42.5855 323.16 45.5813C321.933 48.5796 320.23 51.1684 318.048 53.3501C315.866 55.5317 313.287 57.2283 310.301 58.4398C307.315 59.6538 304.066 60.2607 300.551 60.2607H286.161C282.646 60.2607 279.387 59.6538 276.389 58.4398C273.393 57.2283 270.802 55.5317 268.62 53.3501C266.438 51.1708 264.73 48.5796 263.491 45.5813C262.25 42.5855 261.629 39.2995 261.629 35.7284V24.5275C261.629 20.9856 262.25 17.707 263.491 14.6965C264.732 11.686 266.441 9.0948 268.62 6.92774C270.802 4.76069 273.39 3.0641 276.389 1.83797C279.384 0.611841 282.644 0 286.161 0H300.551C304.066 0 307.315 0.611841 310.301 1.83797C313.287 3.0641 315.866 4.76069 318.048 6.92774C320.23 9.0948 321.933 11.6836 323.16 14.6965C324.386 17.7094 325 20.9856 325 24.5275V35.7284ZM314.372 24.5275C314.372 22.4287 314.035 20.5273 313.37 18.8258C312.702 17.1219 311.761 15.6642 310.55 14.4503C309.336 13.2388 307.878 12.2979 306.174 11.6299C304.473 10.9645 302.598 10.6281 300.553 10.6281H286.164C284.089 10.6281 282.205 10.962 280.501 11.6299C278.797 12.2979 277.332 13.2388 276.106 14.4503C274.88 15.6642 273.932 17.1219 273.264 18.8258C272.598 20.5297 272.264 22.4311 272.264 24.5275V35.7284C272.264 37.8272 272.598 39.7285 273.264 41.4324C273.932 43.1364 274.88 44.5941 276.106 45.8056C277.332 47.0171 278.797 47.958 280.501 48.6259C282.205 49.2938 284.092 49.6278 286.164 49.6278H300.472C302.542 49.6278 304.429 49.2938 306.133 48.6259C307.837 47.958 309.302 47.0171 310.528 45.8056C311.756 44.5916 312.702 43.1339 313.37 41.4324C314.035 39.7285 314.372 37.8272 314.372 35.7284V24.5275Z" fill="#1E6CB5"/>
</svg>
